<svg xmlns="http://www.w3.org/2000/svg" viewBox="0 0 32 32">
  <path fill="#239120" d="M2 6a4 4 0 0 1 4-4h20a4 4 0 0 1 4 4v20a4 4 0 0 1-4 4H6a4 4 0 0 1-4-4V6z"/>
  <path fill="#fff" d="M12.5 8.5c-2.485 0-4.5 2.015-4.5 4.5s2.015 4.5 4.5 4.5c1.664 0 3.12-.906 3.891-2.25l2.218 1.281c-1.157 2.017-3.315 3.375-5.859 3.375A6.5 6.5 0 1 1 19 13a6.5 6.5 0 0 1-6.5 6.906c-2.544 0-4.702-1.358-5.859-3.375l2.218-1.281A4.482 4.482 0 0 0 12.5 17.5z"/>
  <path fill="#fff" d="M21 12v2h-3v-2h3zm0 3v2h-3v-2h3zm0 3v2h-3v-2h3z"/>
</svg>
