<svg xmlns="http://www.w3.org/2000/svg" viewBox="0 0 32 32">
  <defs>
    <linearGradient id="a" x1="0%" y1="100%" x2="100%" y2="0%">
      <stop offset="0%" style="stop-color:#512bd4"/>
      <stop offset="100%" style="stop-color:#239b56"/>
    </linearGradient>
  </defs>
  <path fill="url(#a)" d="M2 6a4 4 0 0 1 4-4h20a4 4 0 0 1 4 4v20a4 4 0 0 1-4 4H6a4 4 0 0 1-4-4V6z"/>
  <path fill="#fff" d="M8 8v16h16V8H8zm2 2h12v12H10V10zm2 2v8h8v-8h-8zm2 2h4v4h-4v-4z"/>
  <path fill="#fff" d="M12 12h8v2h-8zm0 3h8v2h-8zm0 3h8v2h-8z"/>
</svg>
