<svg xmlns="http://www.w3.org/2000/svg" viewBox="0 0 32 32">
  <path fill="#e34f26" d="M5.902 27.201L3.655 2h24.69l-2.25 25.197L15.985 30L5.902 27.201z"/>
  <path fill="#ef652a" d="M16 27.858l8.17-2.265 1.922-21.532H16v23.797z"/>
  <path fill="#fff" d="M16 13.407h4.09l.282-3.165H16V7.151h7.75l-.074.829-.759 8.518H16v-3.091z"/>
  <path fill="#ebebeb" d="M16 21.434l-.014.004-3.442-.929-.22-2.465H9.221l.433 4.852 6.332 1.758.014-.004v-3.216z"/>
  <path fill="#fff" d="M19.827 16.151l-.372 4.139-3.447.93v3.216l6.336-1.756.047-.522.537-6.007h-3.101z"/>
  <path fill="#ebebeb" d="M16.011 13.407v3.091H9.759l-.062-.695-.141-1.567-.074-.829h6.529zM16.011 7.151v3.091H8.545l-.062-.695-.14-1.567-.074-.829h7.742z"/>
</svg>
