<svg xmlns="http://www.w3.org/2000/svg" viewBox="0 0 32 32">
  <path fill="#f7df1e" d="M2 2h28v28H2z"/>
  <path fill="#000" d="M20.809 23.875a2.866 2.866 0 0 0 2.6 1.6c1.09 0 1.787-.545 1.787-1.3 0-.9-.716-1.222-1.916-1.747l-.658-.282c-1.9-.809-3.16-1.822-3.16-3.964 0-1.973 1.5-3.476 3.853-3.476a3.889 3.889 0 0 1 3.742 2.107L25 18.128A2.25 2.25 0 0 0 23.357 17a1.214 1.214 0 0 0-1.357 1.091c0 .764.574 1.073 1.898 1.547l.658.282c2.249.959 3.511 1.936 3.511 4.133 0 2.366-1.86 3.67-4.354 3.67a5.065 5.065 0 0 1-4.578-2.670zm-9.61.018c.3.536.573.984 1.233.984.628 0 1.024-.245 1.024-1.2v-6.5h2.306v6.51c0 1.982-1.16 2.888-2.852 2.888a2.946 2.946 0 0 1-2.85-1.793z"/>
</svg>
