<svg xmlns="http://www.w3.org/2000/svg" viewBox="0 0 32 32">
  <path fill="#06b6d4" d="M16 6.588c2.175 1.273 4.35 2.546 6.525 3.818a.853.853 0 0 1 .475.763v7.662a.853.853 0 0 1-.475.763L16 22.412l-6.525-2.818a.853.853 0 0 1-.475-.763v-7.662a.853.853 0 0 1 .475-.763z"/>
  <path fill="#67e8f9" d="M23 10.406v7.662a.853.853 0 0 1-.475.763L16 22.412v-15.824z"/>
  <path fill="#0891b2" d="M16 6.588v15.824l-6.525-2.818a.853.853 0 0 1-.475-.763v-7.662a.853.853 0 0 1 .475-.763z"/>
  <path fill="#fff" d="M22 9.2a11.967 11.967 0 0 0-6-1.6 11.967 11.967 0 0 0-6 1.6v1.2c1.657-.8 3.686-1.2 6-1.2s4.343.4 6 1.2z"/>
</svg>
