<svg xmlns="http://www.w3.org/2000/svg" viewBox="0 0 32 32">
  <rect fill="#3178c6" width="32" height="32" rx="1.312"/>
  <path fill="#fff" d="M18.245 8.167v15.666h2.729V8.167h-2.729zm4.043 12.881a3.037 3.037 0 0 0 2.532 1.302c1.192 0 1.916-.613 1.916-1.456 0-.827-.464-1.201-1.536-1.649l-.524-.224c-1.135-.484-1.89-1.092-1.89-2.376 0-1.182.9-2.081 2.307-2.081.998 0 1.714.348 2.231 1.258l1.209-.777a3.732 3.732 0 0 0-3.44-1.818c-1.584 0-2.704 1.007-2.704 2.328 0 1.627.998 2.481 2.26 2.937l.523.224c1.343.573 2.139 1.016 2.139 2.242 0 1.285-1.01 2.012-2.365 2.012a2.681 2.681 0 0 1-2.704-1.471zm-6.556 1.049c.287.509.662.885 1.39.885.712 0 1.163-.278 1.163-1.373v-7.411h1.744v7.457c0 2.265-1.327 3.298-3.266 3.298a3.565 3.565 0 0 1-3.051-1.743z"/>
</svg>
